<svg xmlns="http://www.w3.org/2000/svg" version="1.1" xmlns:xlink="http://www.w3.org/1999/xlink" xmlns:svgjs="http://svgjs.com/svgjs" width="93.322571mm" height="79.84407mm"><svg width="93.322571mm" height="79.84407mm" viewBox="0 0 93.322571 79.84407" version="1.1" id="SvgjsSvg1004" xml:space="preserve" xmlns:inkscape="http://www.inkscape.org/namespaces/inkscape" xmlns:sodipodi="http://sodipodi.sourceforge.net/DTD/sodipodi-0.dtd" xmlns="http://www.w3.org/2000/svg" xmlns:svg="http://www.w3.org/2000/svg"><sodipodi:namedview id="SvgjsSodipodi:namedview1003" pagecolor="#505050" bordercolor="#eeeeee" borderopacity="1" inkscape:showpageshadow="0" inkscape:pageopacity="0" inkscape:pagecheckerboard="0" inkscape:deskcolor="#d1d1d1" inkscape:document-units="mm"></sodipodi:namedview><defs id="SvgjsDefs1002"></defs><g inkscape:label="Layer 1" inkscape:groupmode="layer" id="SvgjsG1001" transform="translate(-14.805274,91.213865)"><path style="fill:none;fill-opacity:1;stroke:#000000;stroke-width:6.1;stroke-linecap:square;stroke-linejoin:bevel;stroke-miterlimit:0;stroke-dasharray:none;stroke-opacity:1;paint-order:fill markers stroke" d="m 19.028745,-42.977051 c 0,0 20.68509,-13.578715 25.456841,-22.458429 4.771752,-8.879713 6.589144,-16.821694 -0.223468,-19.573747 -6.812612,-2.752054 -15.189588,3.349269 -17.362824,13.917407 -2.173236,10.568137 14.571168,29.343032 15.271459,40.189954 0.700291,10.846923 -4.65367,16.034924 -12.347143,16.446978 -7.693472,0.412054 -14.692147,-3.271787 -9.435749,-13.770691 5.256398,-10.498905 24.438362,-18.538202 31.957795,-27.628257 7.519434,-9.090055 17.019943,-31.724581 17.019943,-31.724581 0,0 4.397449,36.263436 -0.864232,57.909933 -5.261682,21.6464963 -22.536316,13.250135 -17.704825,0.09431 4.831491,-13.155822 54.318848,-32.340484 51.942148,-46.795481 -2.37671,-14.454997 -18.623014,-16.581759 -19.231546,-1.018295 -0.608531,15.563464 -1.979092,41.121518 0.230059,54.484357 2.209151,13.3628397 20.092457,-1.746899 20.092457,-1.746899" id="SvgjsPath1000" sodipodi:nodetypes="czzzzzzcczzzzzc" inkscape:export-filename="path9.svg" inkscape:export-xdpi="96" inkscape:export-ydpi="96"></path></g></svg><style>@media (prefers-color-scheme: light) { :root { filter: none; } }
</style></svg>